<svg version="1.1" id="Layer_1" xmlns="http://www.w3.org/2000/svg" xmlns:xlink="http://www.w3.org/1999/xlink" x="0px" y="0px"
	 width="100%" viewBox="0 0 160 100" enable-background="new 0 0 160 100" xml:space="preserve">
<path fill="#FBFEFD" opacity="1.000000" stroke="none" 
	d="
M123.000000,101.000000 
	C82.000008,101.000000 41.500019,101.000000 1.000022,101.000000 
	C1.000015,67.666687 1.000015,34.333370 1.000007,1.000040 
	C54.333302,1.000026 107.666603,1.000026 160.999939,1.000013 
	C160.999954,34.333294 160.999954,67.666588 160.999969,100.999939 
	C148.500000,101.000000 136.000000,101.000000 123.000000,101.000000 
M28.933256,51.919888 
	C43.207832,63.365929 54.907169,77.084969 64.573135,92.966286 
	C75.843376,55.167866 41.427696,25.323338 4.295908,28.255953 
	C-1.117922,50.341755 5.992270,76.724762 22.220444,89.721100 
	C34.502148,99.556908 48.252346,100.836792 63.606949,96.330383 
	C52.598370,80.232506 40.221264,66.170815 27.770117,52.181625 
	C27.947384,52.015076 28.124649,51.848526 28.933256,51.919888 
M92.449226,97.159706 
	C110.256554,96.777245 125.700096,90.637520 137.922791,77.567970 
	C156.806549,57.375851 161.820847,32.925564 158.751038,6.262505 
	C158.636597,5.268526 156.615326,3.763393 155.446289,3.728884 
	C129.364212,2.958960 105.558472,9.173175 86.192383,27.656481 
	C73.980141,39.312046 68.112923,53.800625 69.078850,70.771370 
	C69.556541,79.164085 71.329979,87.289101 75.335693,95.176537 
	C97.051369,76.138359 115.896049,55.226677 133.843903,33.427727 
	C120.381508,58.053024 102.166443,78.648827 79.938644,95.865875 
	C80.169708,96.297379 80.400772,96.728889 80.631844,97.160393 
	C84.248810,97.160393 87.865776,97.160393 92.449226,97.159706 
z"/>
<path fill="#03C065" opacity="1.000000" stroke="none" 
	d="
M91.965988,97.160049 
	C87.865776,97.160393 84.248810,97.160393 80.631844,97.160393 
	C80.400772,96.728889 80.169708,96.297379 79.938644,95.865875 
	C102.166443,78.648827 120.381508,58.053024 133.843903,33.427727 
	C115.896049,55.226677 97.051369,76.138359 75.335693,95.176537 
	C71.329979,87.289101 69.556541,79.164085 69.078850,70.771370 
	C68.112923,53.800625 73.980141,39.312046 86.192383,27.656481 
	C105.558472,9.173175 129.364212,2.958960 155.446289,3.728884 
	C156.615326,3.763393 158.636597,5.268526 158.751038,6.262505 
	C161.820847,32.925564 156.806549,57.375851 137.922791,77.567970 
	C125.700096,90.637520 110.256554,96.777245 91.965988,97.160049 
z"/>
<path fill="#04C065" opacity="1.000000" stroke="none" 
	d="
M27.200869,52.638153 
	C40.221264,66.170815 52.598370,80.232506 63.606949,96.330383 
	C48.252346,100.836792 34.502148,99.556908 22.220444,89.721100 
	C5.992270,76.724762 -1.117922,50.341755 4.295908,28.255953 
	C41.427696,25.323338 75.843376,55.167866 64.573135,92.966286 
	C54.907169,77.084969 43.207832,63.365929 28.437805,51.538147 
	C27.362368,51.182232 26.782379,51.208054 26.202393,51.233879 
	C26.535219,51.701969 26.868044,52.170063 27.200869,52.638153 
z"/>
<path fill="#FBFEFD" opacity="1.000000" stroke="none" 
	d="
M27.485493,52.409889 
	C26.868044,52.170063 26.535219,51.701969 26.202393,51.233879 
	C26.782379,51.208054 27.362368,51.182232 28.122135,51.419193 
	C28.124649,51.848526 27.947384,52.015076 27.485493,52.409889 
z"/>
</svg>