<svg version="1.1" id="Layer_1" xmlns="http://www.w3.org/2000/svg" xmlns:xlink="http://www.w3.org/1999/xlink" x="0px" y="0px"
	 width="100%" viewBox="0 0 400 400" enable-background="new 0 0 400 400" xml:space="preserve">
<path fill="#000000" opacity="1.000000" stroke="none" 
	d="
M0.999999,105.468658 
	C1.271448,104.214478 1.511845,103.416534 1.820356,102.645844 
	C2.642042,100.593201 2.520970,97.569382 5.763826,97.696632 
	C9.109928,97.827927 9.733521,100.576004 10.490985,103.245476 
	C14.132215,116.077988 13.886518,129.337692 13.984670,142.400940 
	C14.092052,156.692734 16.183235,170.490173 19.485508,184.287598 
	C22.146954,195.407547 20.845957,206.781265 20.852789,218.092270 
	C20.869110,245.115723 13.416283,271.503510 14.359910,298.561157 
	C14.651319,306.916992 16.344202,315.066772 19.601255,322.802826 
	C21.297701,326.832184 23.645853,330.496887 27.405577,332.971680 
	C32.885410,336.578766 38.142021,334.489197 39.507507,328.069305 
	C41.327259,319.513763 41.105183,310.815491 40.363995,302.202972 
	C38.653545,282.327698 36.663624,262.475037 34.620499,242.630386 
	C33.343952,230.231445 31.672827,217.873535 30.343384,205.479553 
	C28.613436,189.351807 28.833483,173.592926 38.167877,159.218857 
	C41.939167,153.411423 43.176300,146.502701 43.573086,139.661011 
	C44.469036,124.212280 44.994102,108.742348 45.781204,93.286705 
	C45.932274,90.320290 45.063877,85.845390 49.460724,85.835907 
	C53.801018,85.826538 53.093464,90.308548 53.241703,93.273674 
	C54.014301,108.727287 55.569637,124.137009 55.414768,139.646027 
	C55.315166,149.620453 53.740845,159.208862 49.619991,168.280426 
	C43.017696,182.814575 43.179276,198.044296 44.916237,213.380844 
	C46.542946,227.743912 48.139072,242.102707 49.391014,256.506805 
	C50.804382,272.768250 51.018955,289.078033 51.912361,305.358368 
	C52.353134,313.390320 51.930798,321.310608 49.679043,329.090668 
	C47.358173,337.109589 42.179600,342.124634 33.917915,343.117279 
	C25.799084,344.092712 19.195259,340.798615 14.695300,333.947144 
	C8.211187,324.074677 6.092002,312.777496 4.685756,301.322357 
	C2.675445,284.946533 6.242612,268.853088 7.236135,252.625717 
	C8.515675,231.726776 11.332671,210.814529 8.618453,189.867767 
	C7.771151,183.328781 5.296772,177.010300 3.719274,170.553726 
	C1.814603,162.758072 1.991098,154.718460 1.083163,146.397568 
	C1.000000,132.645767 1.000000,119.291542 0.999999,105.468658 
z"/>
<path fill="#000000" opacity="1.000000" stroke="none" 
	d="
M171.537018,335.625732 
	C117.013687,318.572998 82.437805,282.940430 69.838043,227.447052 
	C56.199982,167.380707 83.738266,110.281746 133.020370,77.408104 
	C149.980560,71.231049 166.008377,62.278439 184.219009,59.813091 
	C253.517731,50.431465 316.537292,91.930603 336.297882,153.466629 
	C354.435669,209.949173 343.089783,260.456146 301.464905,303.054382 
	C279.699402,325.328857 252.091110,336.036835 221.258453,339.552795 
	C204.417023,341.473328 188.132874,340.073669 171.537018,335.625732 
M327.810394,158.572235 
	C321.913361,138.500916 311.579895,120.994217 296.825317,106.227684 
	C260.686554,70.059639 217.913055,58.432522 168.201416,71.023827 
	C154.842575,74.407440 144.456085,82.268166 133.466751,89.516937 
	C131.243240,90.983604 128.955276,92.385086 126.891640,94.056839 
	C87.476242,125.987030 73.680557,168.399673 78.839851,217.266815 
	C82.338936,250.408997 97.461250,278.761444 123.200027,300.313965 
	C162.866852,333.529236 207.439484,340.769867 255.277145,321.023682 
	C312.905426,297.236145 349.770050,227.380936 327.810394,158.572235 
z"/>
<path fill="#000000" opacity="1.000000" stroke="none" 
	d="
M400.229248,330.457214 
	C398.360596,336.818756 394.720062,339.646820 388.835632,339.041534 
	C379.858368,338.118103 373.105743,333.936737 369.953857,325.016602 
	C367.664154,318.536682 366.701752,311.781647 365.849030,305.018402 
	C362.685059,279.924988 365.829803,255.241028 370.833527,230.689331 
	C371.162506,229.075302 371.219147,229.086838 373.968781,226.906693 
	C376.426605,228.982269 376.351349,231.834885 376.082794,234.571655 
	C375.038635,245.212753 374.948944,255.898651 375.450439,266.531494 
	C376.256470,283.621155 377.588501,300.702667 381.433533,317.446686 
	C382.351074,321.442230 383.649902,325.475433 389.725159,326.938904 
	C381.919952,243.238495 387.510376,160.158340 387.961670,76.928436 
	C391.831848,76.543877 391.803772,79.509163 392.108795,81.468719 
	C393.002350,87.209557 393.814697,92.994316 394.116211,98.790092 
	C394.980957,115.413780 395.712616,132.047058 396.248932,148.684525 
	C397.069885,174.151901 397.363678,199.639771 398.462891,225.093826 
	C399.972870,260.058319 400.369080,295.029083 400.229248,330.457214 
z"/>
<path fill="#000000" opacity="1.000000" stroke="none" 
	d="
M359.674133,159.917740 
	C363.903656,133.922409 367.514374,108.250572 374.677246,83.279091 
	C374.993134,82.177742 375.522125,81.098793 376.947021,80.530701 
	C380.269989,82.078438 380.174805,85.449501 379.924988,88.159370 
	C378.460297,104.044868 376.726532,119.906494 374.980927,135.764893 
	C373.163086,152.279755 371.224854,168.781357 369.348724,185.289825 
	C368.898315,189.253082 368.781891,193.283142 367.962402,197.166534 
	C367.295074,200.328766 368.513611,201.842178 371.119751,202.964325 
	C372.493042,203.555603 373.790649,204.322617 375.122253,205.010635 
	C377.664581,206.324173 378.751495,208.418945 378.178070,211.205399 
	C377.628418,213.876541 375.462585,214.167313 373.197021,214.415039 
	C357.358429,216.147018 352.976776,211.687378 354.961914,195.422104 
	C356.390381,183.717957 358.080383,172.045731 359.674133,159.917740 
z"/>
<path fill="#000000" opacity="1.000000" stroke="none" 
	d="
M28.602764,131.065857 
	C27.710794,133.733688 26.753704,136.380737 23.957394,135.869354 
	C21.065432,135.340469 20.603575,132.461182 20.656612,129.880341 
	C20.895380,118.261848 20.121950,106.619873 21.558193,95.025032 
	C21.864151,92.555023 22.187216,90.125320 25.041834,89.760239 
	C28.373287,89.334175 28.495594,92.412132 29.023346,94.485916 
	C29.837381,97.684639 30.450520,100.949188 30.233007,104.328392 
	C29.668291,113.101585 29.223078,121.882477 28.602764,131.065857 
z"/>
<path fill="#000000" opacity="1.000000" stroke="none" 
	d="
M39.323742,97.984009 
	C40.950504,108.787521 41.990551,119.182808 40.166176,129.622284 
	C39.625832,132.714233 40.122311,137.662064 35.908745,137.459579 
	C31.505281,137.247986 32.710163,132.426895 32.675594,129.296951 
	C32.572746,119.985199 32.569401,110.670006 32.712612,101.359016 
	C32.769688,97.648132 33.031357,93.842049 35.972462,90.962517 
	C39.132481,92.503113 39.088417,95.086304 39.323742,97.984009 
z"/>
<path fill="#000000" opacity="1.000000" stroke="none" 
	d="
M291.137329,135.898346 
	C304.116943,152.149780 311.644104,170.037643 311.328125,190.788101 
	C311.241119,196.500900 309.691833,201.943283 308.153412,207.382431 
	C307.775024,208.720322 307.073914,209.782959 305.677979,210.205475 
	C303.495331,209.085693 303.706360,207.173279 303.908203,205.387573 
	C308.115051,168.164978 292.101196,137.586731 259.151520,119.187790 
	C241.160248,109.141556 221.886551,103.569153 201.452744,103.741745 
	C176.262054,103.954506 153.010254,110.468353 135.107590,129.805420 
	C132.743683,132.358734 130.905167,135.391449 128.632187,138.037964 
	C126.320595,140.729446 123.753265,143.672211 119.814735,140.783768 
	C116.249687,138.169220 117.596291,134.882965 119.379364,131.889206 
	C126.065948,120.662529 135.785950,112.646927 147.212875,106.765068 
	C185.900345,86.851227 223.932724,90.309868 261.236664,110.680084 
	C272.749359,116.966721 282.498871,125.549850 291.137329,135.898346 
z"/>
<path fill="#000000" opacity="1.000000" stroke="none" 
	d="
M113.148071,245.730347 
	C103.290619,227.703964 97.657074,208.971848 98.703598,188.583344 
	C98.873611,185.271286 99.250549,181.959457 99.729996,178.676468 
	C100.249062,175.122131 101.663536,171.992477 105.954529,172.371170 
	C110.218979,172.747513 110.717270,176.097641 110.272240,179.445343 
	C108.518829,192.635300 108.943054,205.722366 112.860283,218.452774 
	C122.156952,248.665573 141.664856,270.479248 170.028717,283.637115 
	C208.734833,301.592682 253.485794,294.345581 283.143646,261.132294 
	C284.488312,259.626404 285.652557,257.453766 288.572540,257.985474 
	C290.028259,260.678162 287.779358,262.330688 286.544708,263.994629 
	C271.790710,283.878754 251.727859,295.456848 227.589996,299.046814 
	C186.633835,305.138123 152.227737,291.993011 124.385559,261.443329 
	C120.098343,256.739166 116.664223,251.433929 113.148071,245.730347 
z"/>
<path fill="#000000" opacity="1.000000" stroke="none" 
	d="
M182.320557,236.575592 
	C177.465714,229.061691 177.361588,221.385605 181.795837,215.370239 
	C185.236664,210.702515 192.541901,208.345825 198.927109,210.014587 
	C205.135376,211.637085 209.075592,215.682083 210.212265,221.981049 
	C211.404495,228.587967 210.264450,234.778305 204.381516,238.868317 
	C198.580780,242.901199 192.268021,243.000900 186.024643,239.670563 
	C184.737823,238.984161 183.709229,237.813721 182.320557,236.575592 
M198.377975,217.818314 
	C196.919800,217.587616 195.460312,217.155350 194.003708,217.164871 
	C190.002914,217.191071 187.375534,219.348694 186.503403,223.144882 
	C185.592010,227.111908 186.348694,230.820923 190.069122,233.202560 
	C193.559052,235.436646 196.996567,235.085846 200.117966,232.358017 
	C204.382172,228.631409 203.911011,222.557281 198.377975,217.818314 
z"/>
<path fill="#000000" opacity="1.000000" stroke="none" 
	d="
M153.570068,216.415314 
	C155.335831,218.402893 156.866898,220.127350 158.432709,221.890930 
	C164.291275,218.739609 166.547562,212.442001 171.753403,209.755127 
	C173.891724,211.285950 173.300079,213.095520 173.312729,214.644684 
	C173.375183,222.298126 173.303406,229.952545 173.337448,237.606354 
	C173.347961,239.970978 172.674637,241.357895 169.938675,241.319641 
	C167.180511,241.281052 166.608978,239.783249 166.640076,237.482101 
	C166.688919,233.865768 166.653030,230.248306 166.653030,226.286392 
	C163.184692,227.458786 162.168365,230.865372 159.207031,231.992203 
	C156.644562,231.223495 155.458725,228.430527 152.041626,226.710571 
	C152.041626,230.534927 152.038071,233.755890 152.042740,236.976868 
	C152.046585,239.625046 151.386459,241.431290 148.095703,241.346603 
	C144.963776,241.265976 144.676590,239.442886 144.682632,237.066971 
	C144.705292,228.147430 144.691711,219.227798 144.691711,210.082169 
	C149.709702,210.092697 150.796738,214.101791 153.570068,216.415314 
z"/>
<path fill="#000000" opacity="1.000000" stroke="none" 
	d="
M249.465088,172.571411 
	C247.919891,170.912979 246.598145,169.519135 244.245102,167.037704 
	C244.245102,172.111557 244.253845,175.705002 244.241699,179.298355 
	C244.234818,181.333771 243.198914,182.325943 241.153519,182.312653 
	C239.463760,182.301666 237.356552,182.435547 237.231339,180.255692 
	C236.674316,170.558151 236.647583,160.856873 237.350784,149.764313 
	C244.678223,154.322083 247.796570,161.061935 253.969955,166.379669 
	C253.969955,162.150726 253.936920,158.909943 253.980652,155.670181 
	C254.014206,153.183807 254.407394,150.976013 257.696716,150.928299 
	C261.043457,150.879776 261.344330,152.996765 261.331360,155.565384 
	C261.291962,163.375137 261.325226,171.185242 261.313538,178.995178 
	C261.311615,180.291382 261.401886,181.636887 259.995911,183.196640 
	C255.684921,180.532318 253.122650,176.212280 249.465088,172.571411 
z"/>
<path fill="#000000" opacity="1.000000" stroke="none" 
	d="
M210.825439,164.013184 
	C210.826431,162.350479 210.581436,161.117310 210.877518,160.031723 
	C211.728333,156.912109 208.415833,152.058304 214.062714,150.924469 
	C223.495407,149.030502 230.307419,151.753891 232.478699,157.648865 
	C233.694885,160.950806 233.483612,164.293869 231.082947,166.509232 
	C227.624741,169.700546 228.527817,172.431366 230.581696,175.635620 
	C231.718307,177.408813 232.613373,179.336853 233.806412,181.545105 
	C229.851776,182.709137 226.850143,183.173859 224.720596,179.403320 
	C223.212646,176.733322 222.249634,173.662888 219.652222,171.320099 
	C217.479294,173.565323 218.458710,176.002075 218.335648,178.152908 
	C218.196136,180.591446 217.809189,182.317093 214.765228,182.370651 
	C211.547592,182.427307 210.780685,180.737534 210.813171,177.999496 
	C210.866531,173.503616 210.826981,169.006653 210.825439,164.013184 
M218.716110,162.745285 
	C219.409790,163.647079 220.410324,163.712265 221.413651,163.682816 
	C223.376343,163.625168 225.440079,163.130508 225.198853,160.783554 
	C224.930161,158.169144 222.554382,158.193634 220.519073,158.361282 
	C218.097763,158.560715 218.294846,160.356613 218.716110,162.745285 
z"/>
<path fill="#000000" opacity="1.000000" stroke="none" 
	d="
M231.629593,241.045074 
	C228.019791,238.033188 227.529633,233.200684 223.982971,230.156937 
	C221.524887,232.232697 222.563049,234.701614 222.390625,236.827560 
	C222.212769,239.020645 222.498138,241.235413 219.207443,241.315262 
	C216.114517,241.390320 215.659164,239.586288 215.665375,237.162140 
	C215.685410,229.344437 215.720062,221.526306 215.657379,213.709076 
	C215.635330,210.957916 216.868057,209.742630 219.557358,209.813980 
	C222.712982,209.897720 225.922333,209.600861 229.015396,210.075333 
	C236.715164,211.256485 240.473969,220.328186 235.188934,225.942841 
	C232.130920,229.191589 233.237320,231.213699 234.789047,234.077133 
	C235.873749,236.078766 237.522141,237.875015 237.645691,240.435272 
	C235.924728,241.987183 233.908661,241.178421 231.629593,241.045074 
M224.063690,222.573318 
	C224.875809,222.621613 225.689423,222.727707 226.499725,222.706558 
	C228.377441,222.657578 229.731979,221.894806 229.578537,219.788345 
	C229.420639,217.620651 227.781525,217.343018 226.031876,217.331635 
	C222.010681,217.305435 221.607254,219.204773 224.063690,222.573318 
z"/>
<path fill="#000000" opacity="1.000000" stroke="none" 
	d="
M203.843475,172.250702 
	C204.872055,175.579391 206.937134,178.183167 206.875412,181.686249 
	C204.085205,182.462936 201.739639,182.868042 199.069839,180.741318 
	C196.023941,178.314972 192.107269,178.277573 189.033646,180.742615 
	C186.547424,182.736542 184.283768,182.486542 180.660248,181.620972 
	C184.868088,171.084610 188.973434,160.804916 193.078796,150.525223 
	C193.655380,150.452103 194.231964,150.378983 194.808563,150.305862 
	C197.766403,157.503143 200.724243,164.700439 203.843475,172.250702 
z"/>
<path fill="#000000" opacity="1.000000" stroke="none" 
	d="
M173.851959,182.373718 
	C161.658905,182.398392 161.657974,182.398392 161.662399,170.881302 
	C161.664383,165.724319 161.804367,160.562820 161.629135,155.411942 
	C161.509735,151.901581 163.006012,150.597534 166.374115,150.792679 
	C168.861130,150.936783 171.364014,150.866577 173.858109,150.812164 
	C176.410522,150.756500 178.015945,151.629318 178.073669,154.470764 
	C178.130997,157.293762 176.667892,158.204834 174.042603,158.279541 
	C172.246048,158.330627 169.479324,157.441238 169.366882,160.484604 
	C169.256195,163.479904 172.038437,162.818665 173.855103,163.107132 
	C176.125458,163.467606 176.913788,164.826965 176.848373,166.940491 
	C176.780823,169.122513 175.819092,170.297440 173.484558,170.310547 
	C171.555099,170.321381 169.110214,169.963745 169.254013,173.067154 
	C169.394241,176.093277 171.835114,175.504181 173.743240,175.617355 
	C175.869019,175.743408 178.205353,175.299622 178.291321,178.680817 
	C178.365768,181.609604 176.932281,182.517776 173.851959,182.373718 
z"/>
<path fill="#000000" opacity="1.000000" stroke="none" 
	d="
M252.374725,217.297791 
	C250.245728,217.423462 248.988892,218.055237 249.314301,220.052231 
	C249.591644,221.754303 251.033936,221.924484 252.379868,221.967529 
	C255.006714,222.051559 256.944885,222.748444 256.897003,225.927505 
	C256.844940,229.384293 254.485214,229.335648 252.052628,229.331665 
	C250.515030,229.329147 248.907593,229.354126 248.910416,231.542374 
	C248.912994,233.536942 249.848831,234.635788 251.949615,234.621475 
	C253.277206,234.612411 254.606262,234.692322 255.933334,234.759033 
	C257.962067,234.861023 258.265564,236.260239 258.250946,237.887924 
	C258.236847,239.456863 258.097839,240.955429 256.094208,241.219376 
	C255.437408,241.305908 254.768127,241.340576 254.105331,241.332672 
	C239.351227,241.156876 241.942154,243.189606 241.672974,229.562805 
	C241.581085,224.910965 241.939972,220.234024 241.581543,215.608170 
	C241.211029,210.826447 243.280960,209.323044 247.671616,209.772491 
	C249.316269,209.940857 250.992828,209.793854 252.654846,209.796951 
	C255.185059,209.801666 257.843964,209.542877 258.058319,213.250748 
	C258.289948,217.258301 255.623901,217.351929 252.374725,217.297791 
z"/>
<path fill="#000000" opacity="1.000000" stroke="none" 
	d="
M142.276276,182.025543 
	C140.121704,180.247055 140.724442,178.125839 140.706085,176.200928 
	C140.637756,169.035843 140.713623,161.869507 140.684555,154.703857 
	C140.675003,152.346924 141.430725,150.903763 144.082840,150.847717 
	C146.658325,150.793304 147.777359,152.122925 147.830170,154.463287 
	C147.935410,159.126495 147.947632,163.792297 147.957169,168.457108 
	C147.971191,175.305511 147.956177,175.298523 154.565872,175.632431 
	C155.210831,175.664993 155.847946,175.852478 156.420166,175.955704 
	C157.990021,181.740387 157.640213,182.302307 152.220139,182.354843 
	C149.058197,182.385513 145.894592,182.244141 142.276276,182.025543 
z"/>
</svg>